<svg width="139" height="28" viewBox="0 0 139 28" fill="none" xmlns="http://www.w3.org/2000/svg">
<path d="M126.584 14.4545C125.716 18.2515 124.215 22.0191 122.243 24.6976C122.169 24.8006 122.095 24.9037 122.007 25.0067C121.418 25.772 120.683 26.3754 119.844 26.8022C119.255 27.0965 118.593 27.3025 117.901 27.4056C117.901 27.4056 117.857 27.4056 117.842 27.4056C115.473 26.3754 111.955 23.6233 115.075 21.607C115.09 21.5776 115.12 21.5629 115.134 21.5334C116.326 20.2383 117.327 18.7372 118.107 17.0742C119.741 13.6157 120.491 9.43601 120.02 4.85899L124.509 1.22387C124.921 0.885379 125.495 0.870663 125.907 1.15029C126.04 1.23859 126.157 1.35633 126.246 1.5035C127.82 3.90238 127.806 9.20053 126.584 14.4545Z" fill="#BA7F36"/>
<path d="M135.532 13.6595L135.591 22.6516C135.517 22.7694 135.385 23.0637 135.252 23.3139C135.031 23.6966 134.766 24.035 134.472 24.3441C134.472 24.3441 134.06 24.7709 133.913 24.7562L127.879 23.3875C128.468 22.7694 129.027 21.9305 129.542 20.915C130.572 18.9135 131.396 16.2791 131.838 13.5123C132.044 12.2172 132.162 10.9074 132.162 9.6123L135.517 13.6595H135.532Z" fill="#BA7F36"/>
<path d="M119.844 26.7872C119.255 27.0815 118.593 27.2876 117.901 27.3906C116.488 27.5967 114.869 27.3759 113.103 26.64C113.103 26.64 113.089 26.64 113.074 26.64C109.895 25.0506 106.113 21.4891 105.921 13.8509C105.804 8.92067 108.129 5.96254 109.954 4.27007C111.013 3.29875 112.676 4.06403 112.529 5.47687C112.044 9.92143 113.03 16.7649 115.134 21.5332C116.356 24.3 117.96 26.3457 119.858 26.7872H119.844Z" fill="#FFC032"/>
<path d="M133.575 25.3011C132.736 26.14 132.029 26.5668 130.94 27.0966C128.615 28.2004 125.392 28.8038 123.052 25.8015C122.772 25.4483 122.493 25.0804 122.228 24.6977C120.697 22.6079 119.211 20.1649 118.107 17.1331C116.885 13.8071 116.164 9.84819 116.341 5.06513C116.444 2.38663 118.431 0.282083 120.992 0.0318921C122.905 -0.15943 124.95 0.546991 125.892 1.16511C124.053 0.517556 124.95 9.49498 126.569 14.4546C127.349 16.8388 128.365 19.0905 129.542 20.9301C130.823 22.9464 133.575 25.3011 134.472 24.3592C134.472 24.3592 133.575 25.3011 133.575 25.3158V25.3011Z" fill="#FFC032"/>
<path d="M138.461 10.3341C138.549 12.2326 138.505 14.0134 138.123 16.0149C138.123 16.0296 138.123 16.059 138.123 16.0738C137.578 18.5021 136.842 20.6066 135.871 22.3432C135.797 22.461 135.341 23.2115 135.268 23.3293C135.768 22.5198 135.577 20.0327 134.532 17.6779C133.869 16.1768 132.81 14.9111 131.853 13.5277C130.646 11.7617 129.66 9.819 129.984 7.06691C130.337 4.09406 132.442 3.12273 133.914 3.28462C136.033 3.62311 138.27 6.36049 138.476 10.3488L138.461 10.3341Z" fill="#FFC032"/>
<path d="M20.8716 15.0135C20.1505 15.0135 19.6354 14.8075 19.3263 14.4101C19.0172 14.0128 18.8701 13.5124 18.8701 12.8795C18.8701 12.5999 18.8995 12.2909 18.9436 11.9671C19.0025 11.6433 19.0614 11.2901 19.1497 10.9074L16.7214 10.5248C16.324 11.658 15.75 12.5705 14.9995 13.2475C14.2342 13.9392 13.2335 14.4543 11.9972 14.7633C10.7463 15.0871 9.20094 15.249 7.31716 15.249C5.93375 15.249 4.96245 15.1313 4.4032 14.8958C3.81452 14.675 3.5349 14.2629 3.5349 13.6595C3.5349 13.218 3.68204 12.7324 4.00581 12.1878C4.31487 11.6433 4.68281 11.1135 5.12432 10.5837C5.81603 10.5395 6.65492 10.4954 7.62625 10.4659C8.61229 10.4659 9.58362 10.4365 10.5697 10.4365C10.9376 10.4365 11.276 10.4365 11.5851 10.4365C11.9089 10.4365 12.2032 10.4659 12.4829 10.4954C12.9244 9.62706 13.1452 8.84706 13.1452 8.12592C13.1452 7.5078 12.9097 7.08101 12.4387 6.83082C11.9825 6.58063 11.1583 6.46289 9.98094 6.46289C9.52471 6.46289 8.95076 6.46289 8.24434 6.49232C7.53792 6.52176 6.81677 6.55119 6.06619 6.59534C5.33034 6.62478 4.66811 6.66893 4.07942 6.71308C3.35829 7.65497 2.68128 8.61158 2.07788 9.56819C1.45976 10.5248 0.95941 11.4814 0.591483 12.3939C0.208839 13.3358 0.0322266 14.2335 0.0322266 15.0724C0.0322266 16.6765 0.650314 17.9275 1.88655 18.8547C3.12278 19.7818 4.81526 20.2381 7.00811 20.2381C8.3768 20.2381 9.67192 20.0762 10.9376 19.7524C12.218 19.4286 13.3365 18.9871 14.3225 18.4132C15.3085 17.8245 16.0738 17.1622 16.5889 16.4264C16.8539 17.5596 17.3689 18.4279 18.1195 19.0313C18.8848 19.6494 19.7972 19.9732 20.8422 19.9732H20.8569V14.9252H20.8422L20.8716 15.0135Z" fill="white"/>
<path d="M39.2974 10.289C39.0031 9.37657 38.6646 8.626 38.2967 7.99316L35.3385 10.8041C35.7212 11.3192 36.0449 11.9079 36.3246 12.5407C36.6042 13.1883 36.8396 13.8211 37.031 14.4392C36.7366 14.763 36.457 14.9838 36.2215 15.1015C35.9861 15.2193 35.6181 15.2781 35.1472 15.2781C34.3525 15.2781 33.8226 15.1457 33.5283 14.8808C33.2339 14.6159 33.0868 14.1449 33.0868 13.4826C33.0868 13.2324 33.1015 12.9087 33.1162 12.5407C33.1456 12.1728 33.1898 11.8343 33.2192 11.54H30.32C30.1875 12.526 30.0403 13.2913 29.8932 13.8506C29.7313 14.3951 29.5105 14.7777 29.2456 14.9985C28.966 15.2193 28.5834 15.337 28.0683 15.337C27.3913 15.337 26.9498 15.1898 26.729 14.9249C26.523 14.66 26.42 14.2038 26.42 13.5562C26.42 12.9823 26.5083 12.1875 26.6849 11.1868L23.7856 10.7747C23.5943 11.8343 23.4029 12.6732 23.2263 13.2913C23.035 13.9094 22.7554 14.3509 22.4169 14.6159C22.0637 14.8808 21.5486 15.0132 20.8716 15.0132H20.8569C20.6803 15.0132 20.5625 15.0721 20.4742 15.2045C20.3859 15.337 20.3418 15.5872 20.3418 15.9551V19.1046C20.3418 19.4725 20.3859 19.7227 20.4742 19.8551C20.5625 19.9876 20.6803 20.0612 20.8569 20.0612H20.8716C21.372 20.0612 21.8871 19.9582 22.4022 19.7815C22.9173 19.6049 23.3735 19.3253 23.7856 18.9427C24.1977 18.5747 24.492 18.0891 24.6686 17.5151C24.8599 18.3981 25.2867 19.0898 25.9343 19.5755C26.5818 20.0759 27.3471 20.3114 28.2154 20.3114C29.0838 20.3114 29.7902 20.0759 30.4672 19.6197C31.1589 19.1487 31.6151 18.4717 31.8653 17.574C32.0419 18.4423 32.4098 19.1193 32.9985 19.5902C33.5872 20.0612 34.3525 20.2966 35.3091 20.2966C35.9272 20.2966 36.4423 20.2083 36.8838 20.017C37.3253 19.8257 37.7816 19.5461 38.2525 19.1781C38.7235 18.251 39.0914 17.2944 39.371 16.323C39.6359 15.337 39.7684 14.4392 39.7684 13.6445C39.7684 12.3053 39.6212 11.1868 39.3416 10.3037L39.2974 10.289Z" fill="white"/>
<path d="M47.0977 15.014C46.6856 15.014 46.3324 14.9699 46.0528 14.8816C45.7584 14.7933 45.5082 14.6755 45.2728 14.4989V1.29768L44.375 0.915039L40.8135 4.29997C40.9018 4.91808 40.9606 5.55092 41.0195 6.22791C41.1225 7.58188 41.1667 8.93585 41.1667 10.3193V14.6608C41.1667 15.2936 41.2403 15.9412 41.3727 16.574C41.4905 17.2216 41.7554 17.7955 42.1527 18.3253C42.5501 18.8552 43.1535 19.282 43.9335 19.591C44.7282 19.9148 45.7878 20.0767 47.0977 20.0767H47.1124V15.0287H47.0977V15.014Z" fill="white"/>
<path d="M61.8143 10.0687C61.4023 9.43582 60.7989 8.87658 60.0042 8.42035C59.2094 7.96412 58.2381 7.49317 57.0902 7.00751C56.3985 6.71316 55.6479 6.38939 54.8385 6.02146C54.029 5.66825 53.1607 5.25617 52.2188 4.77051C51.4682 5.41806 50.7913 6.2275 50.2026 7.19883C49.6139 8.17016 49.1429 9.22979 48.8044 10.3777C48.4512 11.5257 48.2893 12.7177 48.2893 13.9245C48.2893 14.3219 48.3777 14.6751 48.5543 14.9694C48.0981 14.9694 47.6124 14.9989 47.0826 14.9989H47.0678C46.8912 14.9989 46.7735 15.0578 46.6852 15.1902C46.5969 15.3227 46.5527 15.5728 46.5527 15.9408V19.0902C46.5527 19.4582 46.5969 19.7083 46.6852 19.8408C46.7735 19.9733 46.8912 20.0468 47.0678 20.0468H47.0826C48.6131 20.0468 50.0701 19.7231 51.5124 19.0755C52.675 19.6642 54.0143 20.0468 55.5449 20.2087C57.0902 20.3853 58.5913 20.3559 60.1072 20.1204L61.9909 14.7634C62.1234 14.3955 62.2264 14.0128 62.3 13.6302C62.3589 13.2475 62.4031 12.8943 62.4031 12.5706C62.4031 11.5256 62.197 10.6868 61.7849 10.0392L61.8143 10.0687ZM53.0136 14.1306C52.3366 13.8951 51.8067 13.6155 51.4388 13.2623C51.0709 12.9091 50.8796 12.4675 50.8796 11.923C50.8796 11.3785 51.0562 10.8928 51.3947 10.466C51.7479 10.0392 52.2188 9.83319 52.8222 9.83319C53.3226 9.83319 53.8083 10.0245 54.2351 10.3924C54.6766 10.7751 54.8973 11.2607 54.8973 11.8789C54.8973 12.7472 54.2792 13.4977 53.0136 14.1306ZM58.0468 14.837C57.5022 14.8076 56.8989 14.7487 56.2366 14.6751C56.5457 14.2042 56.7517 13.7185 56.8842 13.2328C57.0166 12.7324 57.0754 12.2321 57.0754 11.7317C57.0754 11.614 57.0755 11.4815 57.0608 11.3638C57.0608 11.246 57.0313 11.1283 57.0166 11.0106C58.0615 11.4521 58.8121 11.9524 59.283 12.5117C59.7539 13.0857 59.9453 13.8804 59.8864 14.9106C59.2241 14.9106 58.606 14.8811 58.0468 14.837Z" fill="white"/>
<path d="M97.4447 6.08026C97.2533 4.44666 96.9884 2.8425 96.6352 1.28249L95.7375 1.01758L92.2642 4.3142C92.5733 5.65346 92.8235 7.09573 93.0148 8.62631C93.265 10.5837 93.3827 12.5999 93.3827 14.7045C93.059 14.8075 92.7205 14.8811 92.3378 14.9399C91.9699 14.9841 91.5872 15.0135 91.2046 15.0135C91.028 15.0135 90.8956 15.0724 90.8073 15.2048C90.719 15.3373 90.6748 15.5875 90.6748 15.9554V19.1049C90.6748 19.4728 90.719 19.723 90.8073 19.8554C90.8956 19.9879 91.028 20.0615 91.2046 20.0615C92.794 20.0615 94.0597 19.826 95.0163 19.3698C95.9876 18.9136 96.8118 18.2954 97.4888 17.5154C97.5771 16.5588 97.636 15.6022 97.6948 14.6162C97.739 13.6301 97.7684 12.7324 97.7684 11.9377C97.7684 9.98029 97.6654 8.03763 97.4447 6.06554V6.08026Z" fill="white"/>
<path d="M81.7707 15.5C81.3586 15.4264 81.0348 15.2793 80.7846 15.0585C80.5345 14.823 80.4167 14.5728 80.4167 14.2785C80.4167 13.837 80.5344 13.4249 80.7699 13.0423C81.0201 12.6449 81.3291 12.3358 81.7265 12.1004C82.1092 11.8502 82.5065 11.7324 82.9186 11.7324L84.1696 7.33203C83.2718 7.33203 82.4182 7.53807 81.6235 7.93543C80.8141 8.34751 80.1076 8.89204 79.4895 9.61318C78.8714 10.3196 78.4005 11.1438 78.062 12.0709C77.7235 12.9981 77.591 13.9841 77.6352 15.0143H76.3989C76.237 15.0143 76.1046 15.0732 76.0163 15.2057C75.9133 15.3381 75.8691 15.5883 75.8691 15.9562V19.1057C75.8691 19.4736 75.9133 19.7238 76.0163 19.8563C76.1046 19.9887 76.237 20.0623 76.3989 20.0623C77.8559 20.0623 79.3424 20.1359 80.8877 20.2683C82.4182 20.4155 83.8752 20.6363 85.2586 20.9012L86.0387 16.2653L81.7707 15.5Z" fill="white"/>
<path d="M82.919 11.7472C85.5681 11.7472 85.7741 20.0623 91.2047 20.0623V15.0143C86.6277 15.0143 87.1723 7.33203 84.1553 7.33203L82.9043 11.7472H82.919Z" fill="white"/>
<path d="M80.9172 23.0794C81.2262 23.0941 81.9179 23.1089 82.9776 23.1089C84.0372 23.1089 85.6708 23.0058 87.8489 22.7998C88.3934 23.256 88.7025 23.5209 88.7908 23.5945C88.3346 24.6836 87.8931 25.7432 87.4663 26.7734C85.1704 26.9647 83.3896 27.0678 82.1387 27.0678C80.8877 27.0678 80.2549 26.5379 80.2549 25.4636C80.2549 24.7277 80.4757 23.9477 80.9172 23.0941V23.0794Z" fill="white"/>
<path d="M75.1186 15.0136C74.8979 13.6744 74.5152 12.4676 74.0001 11.4079C73.485 10.3336 72.8669 9.49472 72.1163 8.86188C71.3805 8.22905 70.5563 7.90527 69.6439 7.90527C68.8639 7.90527 68.1722 8.15546 67.5688 8.67056C66.9506 9.17094 66.4503 9.84793 66.0235 10.6721C65.6114 11.4962 65.3023 12.4087 65.0816 13.3653C64.8608 14.3514 64.7578 15.308 64.7578 16.2204C64.7578 17.5891 65.1257 18.6046 65.8469 19.2816C66.568 19.9586 67.5835 20.2971 68.908 20.2971C69.6144 20.2971 70.262 20.2382 70.8654 20.1205C71.4688 20.0027 71.9986 19.8555 72.4696 19.6495C72.4696 20.0321 72.499 20.3706 72.499 20.6944C71.5865 21.3861 70.5416 21.9012 69.379 22.2397C68.2016 22.5782 66.774 22.7695 65.0963 22.8137L63.9189 25.5069C64.5665 25.9337 65.1405 26.2575 65.6556 26.4782C66.1706 26.699 66.6563 26.8609 67.1419 26.9492C67.6129 27.0228 68.1133 27.0669 68.6578 27.0669C70.0118 27.0669 71.145 26.7579 72.0575 26.1545C72.9847 25.5511 73.7058 24.7122 74.2356 23.6526C74.7654 22.5929 75.1039 21.3861 75.2511 20.0616H76.399V15.0136H75.1186ZM70.6593 15.7348C70.2473 15.7789 69.8499 15.8083 69.4673 15.8083C68.908 15.8083 68.4518 15.72 68.1133 15.5729C67.7748 15.4257 67.5982 15.1019 67.5982 14.6163C67.5982 14.2483 67.6718 13.8804 67.7895 13.4978C67.922 13.1004 68.1133 12.7766 68.3341 12.5117C68.5695 12.2468 68.8344 12.1144 69.1288 12.1144C69.688 12.1144 70.2031 12.4381 70.6741 13.071C71.1303 13.7185 71.4982 14.5427 71.7925 15.5729C71.4393 15.6465 71.0567 15.6906 70.6593 15.7348Z" fill="white"/>
</svg>
